<?xml version="1.0" encoding="UTF-8" standalone="no"?>
<!-- Created with Inkscape (http://www.inkscape.org/) -->

<svg
   width="164.04381mm"
   height="63.999996mm"
   viewBox="0 0 164.0438 63.999996"
   version="1.1"
   id="svg1"
   xml:space="preserve"
   xmlns="http://www.w3.org/2000/svg"
   xmlns:svg="http://www.w3.org/2000/svg"><defs
     id="defs1" /><g
     id="layer1"
     transform="translate(-23.203239,-120.07839)"><rect
       style="fill:#16a34a;fill-opacity:1;stroke:#334155;stroke-width:5.43697;stroke-linejoin:round;stroke-dasharray:none;stroke-opacity:1;paint-order:markers fill stroke"
       id="rect1-8-5"
       width="29.897684"
       height="22.491781"
       x="15.213657"
       y="137.25536"
       ry="3.9691384"
       transform="matrix(1.0028046,0,0,0.91970688,10.673023,34.580609)" /><rect
       style="fill:#16a34a;fill-opacity:1;stroke-width:0.793752;stroke-linejoin:round;paint-order:markers fill stroke"
       id="rect3"
       width="5.2916665"
       height="26.458334"
       x="152.92917"
       y="131.23334"
       ry="2.6458333"
       transform="matrix(1.0028046,0,0,0.97081946,17.969466,30.988245)" /><rect
       style="fill:#16a34a;fill-opacity:1;stroke-width:0.793752;stroke-linejoin:round;paint-order:markers fill stroke"
       id="rect1-1"
       width="5.2916665"
       height="26.458334"
       x="163.5125"
       y="131.23334"
       ry="2.6458333"
       transform="matrix(1.0028046,0,0,0.97081946,17.969466,30.988245)" /><path
       id="rect2"
       style="fill:#94a3b8;fill-opacity:1;stroke:none;stroke-width:3.97272;stroke-linejoin:round;stroke-dasharray:none;stroke-opacity:1;paint-order:markers fill stroke"
       d="m 88.735994,-176.09488 c 0,6.79185 5.523779,12.3151 12.315366,12.3151 6.79159,0 12.31483,-5.52325 12.31483,-12.3151 v -12.73095 c 0,-0.0208 0.003,-0.0371 0.003,-0.0577 v -5.17329 h 6.95506 c 1.46579,0 2.64602,-1.17986 2.64602,-2.64565 v -0.084 c 0,-1.4658 -1.18023,-2.64617 -2.64602,-2.64617 h -6.95826 v -2.99503 c 0,-0.42612 -0.004,-0.75002 0.003,-1.0327 v -1.17957 h 6.96306 c 1.4658,0 2.64549,-1.18037 2.64549,-2.64616 v -0.084 c 0,-1.46579 -1.17969,-2.64564 -2.64549,-2.64564 H 109.9644 c -0.7854,0 -1.4865,0.34067 -1.97025,0.88068 -0.25287,0.2415 -0.42355,0.55619 -0.54509,0.94458 -0.0315,0.0972 -0.0587,0.19651 -0.0789,0.29837 -0.27207,1.20906 -0.16108,3.08974 -0.16108,6.03438 v 25.76286 c 0,3.39593 -2.76175,6.15807 -6.15768,6.15807 -3.395925,0 -6.158217,-2.76214 -6.158217,-6.15807 v -18.20622 h -0.0112 v -12.67943 c 0,-1.67555 -1.34915,-3.0244 -3.024705,-3.0244 h -0.09601 c -1.675554,0 -3.024171,1.34885 -3.024171,3.0244 0.04142,-0.53071 0,12.67943 0,12.67943 h -0.0011 z"
       transform="matrix(0,0.96887813,-1.0028046,0,-23.357791,34.104026)" /><rect
       style="fill:#f9f9f9;stroke:#334155;stroke-width:5.43699;stroke-linejoin:round;stroke-dasharray:none;stroke-opacity:1;paint-order:markers fill stroke"
       id="rect1-8"
       width="107.15599"
       height="22.491764"
       x="45.111588"
       y="137.25533"
       ry="3.969135"
       transform="matrix(1.0028046,0,0,0.91970688,10.673023,34.580609)" /><rect
       style="fill:#16a34a;fill-opacity:1;stroke:#334155;stroke-width:5.43697;stroke-linejoin:round;stroke-dasharray:none;stroke-opacity:1;paint-order:markers fill stroke"
       id="rect1"
       width="29.897684"
       height="22.491781"
       x="15.213657"
       y="137.25536"
       ry="3.9691384"
       transform="matrix(1.0028046,0,0,0.91970688,10.673023,34.580609)" /></g></svg>
