<svg xmlns="http://www.w3.org/2000/svg" version="1.1" xmlns:xlink="http://www.w3.org/1999/xlink" xmlns:svgjs="http://svgjs.dev/svgjs" width="1000" height="1000"><style>
    #light-icon {
      display: inline;
    }
    #dark-icon {
      display: none;
    }

    @media (prefers-color-scheme: dark) {
      #light-icon {
        display: none;
      }
      #dark-icon {
        display: inline;
      }
    }
  </style><g id="light-icon"><svg xmlns="http://www.w3.org/2000/svg" version="1.1" xmlns:xlink="http://www.w3.org/1999/xlink" xmlns:svgjs="http://svgjs.dev/svgjs" width="1000" height="1000"><g clip-path="url(#SvgjsClipPath1164)"><rect width="1000" height="1000" fill="#ffffff"></rect><g transform="matrix(1.367190196996287,0,0,1.367190196996287,150,309.0910296522265)"><svg xmlns="http://www.w3.org/2000/svg" version="1.1" xmlns:xlink="http://www.w3.org/1999/xlink" xmlns:svgjs="http://svgjs.dev/svgjs" width="511.99899" height="279.272"><svg width="511.99899" height="279.272" viewBox="0 0 135.4664 73.890713" version="1.1" id="svg1" xml:space="preserve" xmlns="http://www.w3.org/2000/svg" xmlns:svg="http://www.w3.org/2000/svg"><defs id="defs1"><clipPath id="SvgjsClipPath1164"><rect width="1000" height="1000" x="0" y="0" rx="350" ry="350"></rect></clipPath></defs><g id="layer1" transform="translate(64.029027,29.761726)"><rect x="39.398968" y="25.656307" style="fill:#16a34a;fill-opacity:1;stroke-width:0.264583" width="18.472679" height="12.31503" id="rect1" transform="scale(-1,1)"></rect><rect x="-40.649391" y="25.656307" style="fill:#ffffff;stroke-width:0.264583" width="73.890984" height="12.31503" id="rect2" transform="scale(-1,1)"></rect><path style="fill:#334155;fill-opacity:1;stroke-width:0.264583" d="M -60.950604,19.498662 H 43.728347 c 1.702593,0 3.078691,1.376097 3.078691,3.078691 v 18.472943 c 0,1.702594 -1.376098,3.078691 -3.078691,3.078691 H -60.95034 c -1.702593,0 -3.078691,-1.376097 -3.078691,-3.078691 V 22.577618 c -2.65e-4,-1.702594 1.375833,-3.078956 3.078427,-3.078956 z M 40.649391,25.656309 H -33.241587 V 37.97134 h 73.890978 z m -98.521039,12.315295 h 18.472678 v -12.31503 h -18.472678 z" id="path2"></path><g id="g4" transform="matrix(-0.26458332,0,0,0.26458332,71.437364,-60.549699)">
	<path style="fill:#16a34a;fill-opacity:1" d="m 58.182,395.636 c -6.435,0 -11.636,-5.213 -11.636,-11.636 v -69.818 c 0,-6.423 5.201,-11.636 11.636,-11.636 6.435,0 11.636,5.213 11.636,11.636 V 384 c 0,6.423 -5.201,11.636 -11.636,11.636 z" id="path3"></path>
	<path style="fill:#16a34a;fill-opacity:1" d="M 11.636,395.636 C 5.201,395.636 0,390.423 0,384 v -69.818 c 0,-6.423 5.201,-11.636 11.636,-11.636 6.435,0 11.636,5.213 11.636,11.636 V 384 c 0.001,6.423 -5.201,11.636 -11.636,11.636 z" id="path4"></path>
</g><path style="fill:#94a3b8;fill-opacity:1;stroke-width:0.264583" d="m 37.570699,-20.525386 h 6.157648 c 3.395927,0 6.157647,-2.761721 6.157647,-6.157648 0,-1.702594 1.376098,-3.078692 3.078692,-3.078692 1.702593,0 3.078691,1.376098 3.078691,3.078692 0,6.791854 -5.523441,12.315031 -12.31503,12.315031 h -6.157648 c -3.395927,0 -6.157648,2.76172 -6.157648,6.1576472 0,3.3959269 2.761721,6.1576476 6.157648,6.1576476 h 21.551634 c 6.79159,0 12.315031,5.5234414 12.315031,12.3150302 0,1.702594 -1.376098,3.078692 -3.078692,3.078692 -1.702593,0 -3.078691,-1.376098 -3.078691,-3.078692 0,-3.3959265 -2.761721,-6.1576472 -6.157648,-6.1576472 h -1.711854 c 1.059127,1.8195395 1.711854,3.9039269 1.711854,6.1576472 0,1.702594 -1.376097,3.078692 -3.078691,3.078692 -1.702594,0 -3.078692,-1.376098 -3.078692,-3.078692 0,-3.3959265 -2.76172,-6.1576472 -6.157647,-6.1576472 h -9.236604 c -6.791854,0 -12.315031,-5.5234414 -12.315031,-12.3150306 0,-6.7915892 5.523177,-12.3150302 12.315031,-12.3150302 z" id="path5"></path></g></svg></svg></g></g></svg></g><g id="dark-icon"><svg xmlns="http://www.w3.org/2000/svg" version="1.1" xmlns:xlink="http://www.w3.org/1999/xlink" xmlns:svgjs="http://svgjs.dev/svgjs" width="1000" height="1000"><g clip-path="url(#SvgjsClipPath1165)"><rect width="1000" height="1000" fill="#334155"></rect><g transform="matrix(1.367190196996287,0,0,1.367190196996287,150,309.0910296522265)"><svg xmlns="http://www.w3.org/2000/svg" version="1.1" xmlns:xlink="http://www.w3.org/1999/xlink" xmlns:svgjs="http://svgjs.dev/svgjs" width="511.99899" height="279.272"><svg width="511.99899" height="279.272" viewBox="0 0 135.4664 73.890713" version="1.1" id="svg1" xml:space="preserve" xmlns="http://www.w3.org/2000/svg" xmlns:svg="http://www.w3.org/2000/svg"><defs id="defs1"><clipPath id="SvgjsClipPath1165"><rect width="1000" height="1000" x="0" y="0" rx="350" ry="350"></rect></clipPath></defs><g id="layer1" transform="translate(64.029027,29.761726)"><rect x="39.398968" y="25.656307" style="fill:#16a34a;fill-opacity:1;stroke-width:0.264583" width="18.472679" height="12.31503" id="rect1" transform="scale(-1,1)"></rect><rect x="-40.649391" y="25.656307" style="fill:#ffffff;stroke-width:0.264583" width="73.890984" height="12.31503" id="rect2" transform="scale(-1,1)"></rect><path style="fill:#334155;fill-opacity:1;stroke-width:0.264583" d="M -60.950604,19.498662 H 43.728347 c 1.702593,0 3.078691,1.376097 3.078691,3.078691 v 18.472943 c 0,1.702594 -1.376098,3.078691 -3.078691,3.078691 H -60.95034 c -1.702593,0 -3.078691,-1.376097 -3.078691,-3.078691 V 22.577618 c -2.65e-4,-1.702594 1.375833,-3.078956 3.078427,-3.078956 z M 40.649391,25.656309 H -33.241587 V 37.97134 h 73.890978 z m -98.521039,12.315295 h 18.472678 v -12.31503 h -18.472678 z" id="path2"></path><g id="g4" transform="matrix(-0.26458332,0,0,0.26458332,71.437364,-60.549699)">
	<path style="fill:#16a34a;fill-opacity:1" d="m 58.182,395.636 c -6.435,0 -11.636,-5.213 -11.636,-11.636 v -69.818 c 0,-6.423 5.201,-11.636 11.636,-11.636 6.435,0 11.636,5.213 11.636,11.636 V 384 c 0,6.423 -5.201,11.636 -11.636,11.636 z" id="path3"></path>
	<path style="fill:#16a34a;fill-opacity:1" d="M 11.636,395.636 C 5.201,395.636 0,390.423 0,384 v -69.818 c 0,-6.423 5.201,-11.636 11.636,-11.636 6.435,0 11.636,5.213 11.636,11.636 V 384 c 0.001,6.423 -5.201,11.636 -11.636,11.636 z" id="path4"></path>
</g><path style="fill:#94a3b8;fill-opacity:1;stroke-width:0.264583" d="m 37.570699,-20.525386 h 6.157648 c 3.395927,0 6.157647,-2.761721 6.157647,-6.157648 0,-1.702594 1.376098,-3.078692 3.078692,-3.078692 1.702593,0 3.078691,1.376098 3.078691,3.078692 0,6.791854 -5.523441,12.315031 -12.31503,12.315031 h -6.157648 c -3.395927,0 -6.157648,2.76172 -6.157648,6.1576472 0,3.3959269 2.761721,6.1576476 6.157648,6.1576476 h 21.551634 c 6.79159,0 12.315031,5.5234414 12.315031,12.3150302 0,1.702594 -1.376098,3.078692 -3.078692,3.078692 -1.702593,0 -3.078691,-1.376098 -3.078691,-3.078692 0,-3.3959265 -2.761721,-6.1576472 -6.157648,-6.1576472 h -1.711854 c 1.059127,1.8195395 1.711854,3.9039269 1.711854,6.1576472 0,1.702594 -1.376097,3.078692 -3.078691,3.078692 -1.702594,0 -3.078692,-1.376098 -3.078692,-3.078692 0,-3.3959265 -2.76172,-6.1576472 -6.157647,-6.1576472 h -9.236604 c -6.791854,0 -12.315031,-5.5234414 -12.315031,-12.3150306 0,-6.7915892 5.523177,-12.3150302 12.315031,-12.3150302 z" id="path5"></path></g></svg></svg></g></g></svg></g></svg>