<?xml version="1.0" encoding="UTF-8" standalone="no"?>
<!-- Created with Inkscape (http://www.inkscape.org/) -->

<svg
   width="1026.9999"
   height="323"
   viewBox="0 0 271.72706 85.460416"
   version="1.1"
   id="svg1"
   xml:space="preserve"
   xmlns:xlink="http://www.w3.org/1999/xlink"
   xmlns="http://www.w3.org/2000/svg"
   xmlns:svg="http://www.w3.org/2000/svg"><defs
     id="defs1"><pattern
       xlink:href="#pattern6"
       preserveAspectRatio="xMidYMid"
       id="pattern16"
       patternTransform="matrix(96.12617,-27.563735,27.563735,96.12617,179.68188,-529.04183)" /><pattern
       xlink:href="#pattern3"
       preserveAspectRatio="xMidYMid"
       id="pattern15"
       patternTransform="matrix(0.08,0,0,0.08,179.68187,-529.04186)"
       x="0"
       y="0"
       width="264.42017212"
       height="208.09386292" /><pattern
       xlink:href="#pattern6"
       preserveAspectRatio="xMidYMid"
       id="pattern13"
       patternTransform="matrix(96.12617,-27.563735,27.563735,96.12617,179.68187,-529.04186)" /><pattern
       xlink:href="#pattern3"
       preserveAspectRatio="xMidYMid"
       id="pattern6"
       patternTransform="matrix(96.12617,-27.563735,27.563735,96.12617,179.68188,-529.04185)"
       x="0"
       y="0"
       width="528.84034424"
       height="594.55389404" /><pattern
       xlink:href="#pattern11"
       preserveAspectRatio="xMidYMid"
       id="pattern2"
       patternTransform="translate(295.1212,636.07252)" /><pattern
       patternUnits="userSpaceOnUse"
       width="167.86118"
       height="150.09734"
       patternTransform="translate(295.1212,636.07252)"
       preserveAspectRatio="xMidYMid"
       id="pattern11"
       style="fill:#000000"><g
         id="layer1-8"
         transform="matrix(1.1568729,-0.56024236,0.56024236,1.1568729,61.822313,64.501173)"
         style="stroke-width:2.94037"><rect
           x="39.398968"
           y="25.656307"
           style="fill:#cbd5e1;fill-opacity:1;stroke-width:0.777973"
           width="18.472679"
           height="12.31503"
           id="rect1-8"
           transform="scale(-1,1)" /><rect
           x="-40.649391"
           y="25.656307"
           style="fill:#ffffff;stroke-width:0.777973"
           width="73.890984"
           height="12.31503"
           id="rect2"
           transform="scale(-1,1)" /><path
           style="fill:#cbd5e1;fill-opacity:1;stroke-width:0.777973"
           d="M -60.950604,19.498662 H 43.728347 c 1.702593,0 3.078691,1.376097 3.078691,3.078691 v 18.472943 c 0,1.702594 -1.376098,3.078691 -3.078691,3.078691 H -60.95034 c -1.702593,0 -3.078691,-1.376097 -3.078691,-3.078691 V 22.577618 c -2.65e-4,-1.702594 1.375833,-3.078956 3.078427,-3.078956 z M 40.649391,25.656309 H -33.241587 V 37.97134 h 73.890978 z m -98.521039,12.315295 h 18.472678 v -12.31503 h -18.472678 z"
           id="path2" /><g
           id="g4"
           transform="matrix(-0.26458332,0,0,0.26458332,71.437364,-60.549699)"
           style="stroke-width:2.94037">
	<path
   style="fill:#cbd5e1;fill-opacity:1;stroke-width:2.94037"
   d="m 58.182,395.636 c -6.435,0 -11.636,-5.213 -11.636,-11.636 v -69.818 c 0,-6.423 5.201,-11.636 11.636,-11.636 6.435,0 11.636,5.213 11.636,11.636 V 384 c 0,6.423 -5.201,11.636 -11.636,11.636 z"
   id="path3" />
	<path
   style="fill:#cbd5e1;fill-opacity:1;stroke-width:2.94037"
   d="M 11.636,395.636 C 5.201,395.636 0,390.423 0,384 v -69.818 c 0,-6.423 5.201,-11.636 11.636,-11.636 6.435,0 11.636,5.213 11.636,11.636 V 384 c 0.001,6.423 -5.201,11.636 -11.636,11.636 z"
   id="path4" />
</g><path
           style="fill:#cbd5e1;fill-opacity:1;stroke-width:0.777973"
           d="m 37.570699,-20.525386 h 6.157648 c 3.395927,0 6.157647,-2.761721 6.157647,-6.157648 0,-1.702594 1.376098,-3.078692 3.078692,-3.078692 1.702593,0 3.078691,1.376098 3.078691,3.078692 0,6.791854 -5.523441,12.315031 -12.31503,12.315031 h -6.157648 c -3.395927,0 -6.157648,2.76172 -6.157648,6.1576472 0,3.3959269 2.761721,6.1576476 6.157648,6.1576476 h 21.551634 c 6.79159,0 12.315031,5.5234414 12.315031,12.3150302 0,1.702594 -1.376098,3.078692 -3.078692,3.078692 -1.702593,0 -3.078691,-1.376098 -3.078691,-3.078692 0,-3.3959265 -2.761721,-6.1576472 -6.157648,-6.1576472 h -1.711854 c 1.059127,1.8195395 1.711854,3.9039269 1.711854,6.1576472 0,1.702594 -1.376097,3.078692 -3.078691,3.078692 -1.702594,0 -3.078692,-1.376098 -3.078692,-3.078692 0,-3.3959265 -2.76172,-6.1576472 -6.157647,-6.1576472 h -9.236604 c -6.791854,0 -12.315031,-5.5234414 -12.315031,-12.3150306 0,-6.7915892 5.523177,-12.3150302 12.315031,-12.3150302 z"
           id="path5" /></g></pattern><pattern
       patternUnits="userSpaceOnUse"
       width="188.87155"
       height="148.63848"
       patternTransform="translate(179.68188,-529.04185)"
       preserveAspectRatio="xMidYMid"
       id="pattern3"><rect
         style="fill:#16a34a;fill-opacity:1;stroke:#334155;stroke-width:6.2848;stroke-linejoin:round;stroke-dasharray:none;stroke-opacity:1;paint-order:markers fill stroke"
         id="rect1-8-5"
         width="36.087448"
         height="24.89864"
         x="-50.255516"
         y="113.70601"
         ry="4.393878"
         transform="rotate(-24.627673)" /><rect
         style="fill:#cbd5e1;fill-opacity:1;stroke-width:0.94268;stroke-linejoin:round;paint-order:markers fill stroke"
         id="rect3"
         width="6.3872089"
         height="30.917423"
         x="124.75387"
         y="110.78933"
         ry="3.091742"
         transform="rotate(-24.627673)" /><rect
         style="fill:#cbd5e1;fill-opacity:1;stroke-width:0.94268;stroke-linejoin:round;paint-order:markers fill stroke"
         id="rect1-1"
         width="6.3872089"
         height="30.917423"
         x="137.52827"
         y="110.78933"
         ry="3.091742"
         transform="rotate(-24.627673)" /><path
         id="rect2-2"
         style="fill:#cbd5e1;fill-opacity:1;stroke:none;stroke-width:4.71338;stroke-linejoin:round;stroke-dasharray:none;stroke-opacity:1;paint-order:markers fill stroke"
         d="m 120.55542,15.879414 c -7.45225,3.416261 -10.82812,12.050253 -7.52757,19.250101 3.30056,7.199847 12.04502,10.276947 19.49727,6.860685 l 13.96883,-6.40359 c 0.0229,-0.01048 0.0422,-0.01538 0.0649,-0.02576 l 5.67631,-2.602135 3.37999,7.373142 c 0.71234,1.553901 2.58049,2.211615 4.1888,1.474332 l 0.0921,-0.04223 c 1.60833,-0.737288 2.3299,-2.582185 1.61756,-4.136085 l -3.38155,-7.376534 3.28625,-1.506482 c 0.46755,-0.214333 0.82094,-0.381631 1.13462,-0.516161 l 1.29426,-0.593313 3.38389,7.381632 c 0.71234,1.553912 2.58079,2.210802 4.18911,1.473514 l 0.0921,-0.04223 c 1.60831,-0.737283 2.32958,-2.58135 1.61724,-4.135262 L 168.09109,21.32216 c -0.38169,-0.832616 -1.0962,-1.404509 -1.92381,-1.645708 -0.38787,-0.146596 -0.81611,-0.169252 -1.30133,-0.102743 -0.12198,0.01553 -0.24416,0.03658 -0.3657,0.06649 -1.45885,0.319716 -3.46845,1.383351 -6.69941,2.864489 l -28.26788,12.958564 c -3.72613,1.708135 -8.09899,0.169705 -9.74933,-3.430361 -1.65034,-3.600067 0.038,-7.91774 3.76409,-9.625875 l 19.97648,-9.157621 -0.005,-0.01193 13.9123,-6.3776778 c 1.83847,-0.8427921 2.66282,-2.9515141 1.84854,-4.7277819 l -0.0466,-0.1017574 c -0.81428,-1.77626778 -2.94968,-2.52749667 -4.78815,-1.68470456 0.60243,-0.22306875 -13.9123,6.37767796 -13.9123,6.37767796 l -5e-4,-0.00109 z" /><rect
         style="fill:#f9f9f9;stroke:#cbd5e1;stroke-width:6.28483;stroke-linejoin:round;stroke-dasharray:none;stroke-opacity:1;paint-order:markers fill stroke"
         id="rect1-8-4"
         width="129.34067"
         height="24.898621"
         x="-14.167769"
         y="113.70597"
         ry="4.3938742"
         transform="rotate(-24.627673)" /><rect
         style="fill:#cbd5e1;fill-opacity:1;stroke:#cbd5e1;stroke-width:6.2848;stroke-linejoin:round;stroke-dasharray:none;stroke-opacity:1;paint-order:markers fill stroke"
         id="rect1-5"
         width="36.087448"
         height="24.89864"
         x="-50.255516"
         y="113.70601"
         ry="4.393878"
         transform="rotate(-24.627673)" /></pattern><pattern
       patternUnits="userSpaceOnUse"
       width="188.87155"
       height="148.63848"
       patternTransform="translate(179.68188,-529.04185)"
       preserveAspectRatio="xMidYMid"
       id="pattern3-8"><rect
         style="fill:#16a34a;fill-opacity:1;stroke:#334155;stroke-width:6.2848;stroke-linejoin:round;stroke-dasharray:none;stroke-opacity:1;paint-order:markers fill stroke"
         id="rect1-8-5-8"
         width="36.087448"
         height="24.89864"
         x="-50.255516"
         y="113.70601"
         ry="4.393878"
         transform="rotate(-24.627673)" /><rect
         style="fill:#cbd5e1;fill-opacity:1;stroke-width:0.94268;stroke-linejoin:round;paint-order:markers fill stroke"
         id="rect3-24"
         width="6.3872089"
         height="30.917423"
         x="124.75387"
         y="110.78933"
         ry="3.091742"
         transform="rotate(-24.627673)" /><rect
         style="fill:#cbd5e1;fill-opacity:1;stroke-width:0.94268;stroke-linejoin:round;paint-order:markers fill stroke"
         id="rect1-1-5"
         width="6.3872089"
         height="30.917423"
         x="137.52827"
         y="110.78933"
         ry="3.091742"
         transform="rotate(-24.627673)" /><path
         id="rect2-2-5"
         style="fill:#cbd5e1;fill-opacity:1;stroke:none;stroke-width:4.71338;stroke-linejoin:round;stroke-dasharray:none;stroke-opacity:1;paint-order:markers fill stroke"
         d="m 120.55542,15.879414 c -7.45225,3.416261 -10.82812,12.050253 -7.52757,19.250101 3.30056,7.199847 12.04502,10.276947 19.49727,6.860685 l 13.96883,-6.40359 c 0.0229,-0.01048 0.0422,-0.01538 0.0649,-0.02576 l 5.67631,-2.602135 3.37999,7.373142 c 0.71234,1.553901 2.58049,2.211615 4.1888,1.474332 l 0.0921,-0.04223 c 1.60833,-0.737288 2.3299,-2.582185 1.61756,-4.136085 l -3.38155,-7.376534 3.28625,-1.506482 c 0.46755,-0.214333 0.82094,-0.381631 1.13462,-0.516161 l 1.29426,-0.593313 3.38389,7.381632 c 0.71234,1.553912 2.58079,2.210802 4.18911,1.473514 l 0.0921,-0.04223 c 1.60831,-0.737283 2.32958,-2.58135 1.61724,-4.135262 L 168.09109,21.32216 c -0.38169,-0.832616 -1.0962,-1.404509 -1.92381,-1.645708 -0.38787,-0.146596 -0.81611,-0.169252 -1.30133,-0.102743 -0.12198,0.01553 -0.24416,0.03658 -0.3657,0.06649 -1.45885,0.319716 -3.46845,1.383351 -6.69941,2.864489 l -28.26788,12.958564 c -3.72613,1.708135 -8.09899,0.169705 -9.74933,-3.430361 -1.65034,-3.600067 0.038,-7.91774 3.76409,-9.625875 l 19.97648,-9.157621 -0.005,-0.01193 13.9123,-6.3776778 c 1.83847,-0.8427921 2.66282,-2.9515141 1.84854,-4.7277819 l -0.0466,-0.1017574 c -0.81428,-1.77626778 -2.94968,-2.52749667 -4.78815,-1.68470456 0.60243,-0.22306875 -13.9123,6.37767796 -13.9123,6.37767796 l -5e-4,-0.00109 z" /><rect
         style="fill:#f9f9f9;stroke:#cbd5e1;stroke-width:6.28483;stroke-linejoin:round;stroke-dasharray:none;stroke-opacity:1;paint-order:markers fill stroke"
         id="rect1-8-4-1"
         width="129.34067"
         height="24.898621"
         x="-14.167769"
         y="113.70597"
         ry="4.3938742"
         transform="rotate(-24.627673)" /><rect
         style="fill:#cbd5e1;fill-opacity:1;stroke:#cbd5e1;stroke-width:6.2848;stroke-linejoin:round;stroke-dasharray:none;stroke-opacity:1;paint-order:markers fill stroke"
         id="rect1-5-7"
         width="36.087448"
         height="24.89864"
         x="-50.255516"
         y="113.70601"
         ry="4.393878"
         transform="rotate(-24.627673)" /></pattern><pattern
       xlink:href="#pattern6-1"
       preserveAspectRatio="xMidYMid"
       id="pattern13-1"
       patternTransform="matrix(96.12617,-27.563735,27.563735,96.12617,179.68187,-529.04186)" /><pattern
       xlink:href="#pattern3-8"
       preserveAspectRatio="xMidYMid"
       id="pattern6-1"
       patternTransform="matrix(96.12617,-27.563735,27.563735,96.12617,179.68188,-529.04185)"
       x="0"
       y="0"
       width="528.84034424"
       height="594.55389404" /></defs><g
     id="layer1"
     transform="translate(30.863542,-105.76977)"
     style="stroke:url(#pattern6)"><g
       id="g12"
       style="fill:url(#pattern2);fill-opacity:1;stroke:url(#pattern6)"><rect
         style="fill:#e2e8f0;fill-opacity:1;stroke:url(#pattern13-1);stroke-width:0.79375;stroke-linejoin:round;paint-order:markers fill stroke"
         id="rect12-4"
         width="270.93332"
         height="84.666664"
         x="-30.466667"
         y="106.16665" /><rect
         style="fill:url(#pattern15);fill-opacity:1;stroke:url(#pattern13);stroke-width:0.79375;stroke-linejoin:round;paint-order:markers fill stroke"
         id="rect12"
         width="270.93332"
         height="84.666664"
         x="-30.466667"
         y="106.16665" /></g><g
       id="g13"
       transform="translate(-11.118743,92.24231)"
       style="stroke:url(#pattern6)"><path
         d="m 63.026693,47.600833 v 5.700982 l 6.46629,-6.743575 q 0.465839,-0.488022 0.78749,-0.720941 0.332742,-0.23292 0.876221,-0.23292 0.70985,0 1.142415,0.421474 0.443656,0.410382 0.443656,1.009318 0,0.720941 -0.743124,1.430791 l -4.003998,3.793261 4.614025,6.610479 q 0.488022,0.687667 0.732033,1.208963 0.244011,0.510205 0.244011,0.998226 0,0.543479 -0.432565,0.94277 -0.421473,0.399291 -1.153506,0.399291 -0.687667,0 -1.120232,-0.288377 -0.432565,-0.299468 -0.732033,-0.78749 -0.299468,-0.488022 -0.532387,-0.887312 l -3.893084,-5.98936 -2.695212,2.584298 v 3.360696 q 0,1.020409 -0.465839,1.519523 -0.465839,0.488022 -1.197872,0.488022 -0.421473,0 -0.809672,-0.221829 -0.3882,-0.221828 -0.598936,-0.598936 -0.15528,-0.310559 -0.188554,-0.720941 -0.03327,-0.410382 -0.03327,-1.18678 V 47.600833 q 0,-0.998227 0.432565,-1.49734 0.443657,-0.499114 1.197872,-0.499114 0.743124,0 1.197872,0.499114 0.465839,0.488022 0.465839,1.49734 z m 16.315458,4.225825 v 8.75112 q 0,0.909495 -0.432565,1.375335 -0.432564,0.465839 -1.098049,0.465839 -0.665484,0 -1.086958,-0.476931 -0.410382,-0.47693 -0.410382,-1.364243 V 51.91539 q 0,-0.898404 0.410382,-1.353152 0.421474,-0.454748 1.086958,-0.454748 0.665485,0 1.098049,0.454748 0.432565,0.454748 0.432565,1.26442 z m -1.49734,-3.127776 q -0.63221,0 -1.086957,-0.388199 -0.443657,-0.3882 -0.443657,-1.09805 0,-0.643301 0.454748,-1.053683 0.465839,-0.421474 1.075866,-0.421474 0.587845,0 1.042593,0.377108 0.454747,0.377108 0.454747,1.098049 0,0.698759 -0.443656,1.09805 -0.443656,0.388199 -1.053684,0.388199 z m 7.420152,3.105594 v 0.366016 q 0.854038,-1.053684 1.774625,-1.541705 0.920587,-0.499114 2.085184,-0.499114 1.397518,0 2.573207,0.720942 1.175689,0.720941 1.852265,2.107367 0.687667,1.386426 0.687667,3.283056 0,1.397517 -0.399291,2.573206 -0.388199,1.164598 -1.075866,1.963179 -0.687668,0.78749 -1.630437,1.220055 -0.931678,0.421474 -2.007545,0.421474 -1.297694,0 -2.185007,-0.521297 -0.876221,-0.521296 -1.674802,-1.530614 v 4.547477 q 0,1.996453 -1.452974,1.996453 -0.854039,0 -1.131324,-0.521296 Q 82.40338,65.87947 82.40338,64.892335 V 51.826658 q 0,-0.865129 0.377108,-1.286603 0.377108,-0.432565 1.031501,-0.432565 0.643301,0 1.042592,0.443657 0.410382,0.432565 0.410382,1.253329 z m 5.933902,4.403288 q 0,-1.197872 -0.366016,-2.05191 -0.366016,-0.86513 -1.020409,-1.319878 -0.643302,-0.465839 -1.430792,-0.465839 -1.253329,0 -2.118458,0.987135 -0.854039,0.987136 -0.854039,2.905949 0,1.807899 0.854039,2.817217 0.854038,0.998227 2.118458,0.998227 0.754216,0 1.397517,-0.432565 0.643302,-0.443656 1.031501,-1.319877 0.388199,-0.876222 0.388199,-2.118459 z m 8.263097,-4.403288 v 0.366016 q 0.854038,-1.053684 1.774628,-1.541705 0.92058,-0.499114 2.08518,-0.499114 1.39752,0 2.57321,0.720942 1.17569,0.720941 1.85226,2.107367 0.68767,1.386426 0.68767,3.283056 0,1.397517 -0.39929,2.573206 -0.3882,1.164598 -1.07587,1.963179 -0.68766,0.78749 -1.63043,1.220055 -0.93168,0.421474 -2.00755,0.421474 -1.29769,0 -2.18501,-0.521297 -0.87622,-0.521296 -1.674798,-1.530614 v 4.547477 q 0,1.996453 -1.452975,1.996453 -0.854038,0 -1.131323,-0.521296 -0.277285,-0.510205 -0.277285,-1.49734 V 51.826658 q 0,-0.865129 0.377107,-1.286603 0.377108,-0.432565 1.031501,-0.432565 0.643302,0 1.042592,0.443657 0.410383,0.432565 0.410383,1.253329 z m 5.933898,4.403288 q 0,-1.197872 -0.36601,-2.05191 -0.36602,-0.86513 -1.02041,-1.319878 -0.6433,-0.465839 -1.43079,-0.465839 -1.25333,0 -2.11846,0.987135 -0.85404,0.987136 -0.85404,2.905949 0,1.807899 0.85404,2.817217 0.85404,0.998227 2.11846,0.998227 0.75421,0 1.39751,-0.432565 0.64331,-0.443656 1.0315,-1.319877 0.3882,-0.876222 0.3882,-2.118459 z m 13.91972,0.798581 h -5.92281 q 0.0111,1.031501 0.41038,1.818991 0.41038,0.78749 1.07587,1.18678 0.67657,0.399291 1.48625,0.399291 0.54348,0 0.98713,-0.122005 0.45475,-0.133097 0.87622,-0.399291 0.42148,-0.277285 0.7764,-0.587845 0.35493,-0.310559 0.92059,-0.842947 0.23292,-0.199645 0.66548,-0.199645 0.46584,0 0.75422,0.255103 0.28838,0.255102 0.28838,0.720941 0,0.410382 -0.32166,0.964952 -0.32165,0.543479 -0.97604,1.053684 -0.6433,0.499113 -1.63044,0.831855 -0.97604,0.332743 -2.25155,0.332743 -2.91704,0 -4.53639,-1.663711 -1.61934,-1.663711 -1.61934,-4.514203 0,-1.34206 0.39929,-2.484475 0.39929,-1.153506 1.1646,-1.97427 0.7653,-0.820764 1.88554,-1.253329 1.12023,-0.443656 2.48447,-0.443656 1.77463,0 3.03905,0.754215 1.27551,0.743124 1.90772,1.929905 0.63221,1.18678 0.63221,2.417927 0,1.142414 -0.6544,1.486248 -0.65439,0.332742 -1.84117,0.332742 z m -5.92281,-1.719168 h 5.49025 q -0.11092,-1.552797 -0.84295,-2.318104 -0.72094,-0.776398 -1.90772,-0.776398 -1.13133,0 -1.86336,0.78749 -0.72094,0.776398 -0.87622,2.307012 z m 13.72007,-3.504884 v 0.366016 q 0.79858,-1.053683 1.74135,-1.541705 0.95386,-0.499114 2.185,-0.499114 1.19788,0 2.14065,0.521297 0.94276,0.521296 1.4086,1.475157 0.29947,0.55457 0.3882,1.197871 0.0887,0.643302 0.0887,1.641529 v 5.634434 q 0,0.909495 -0.42147,1.375335 -0.41038,0.465839 -1.07587,0.465839 -0.67657,0 -1.09804,-0.476931 -0.42148,-0.47693 -0.42148,-1.364243 v -5.04659 q 0,-1.49734 -0.42147,-2.28483 -0.41038,-0.798581 -1.65262,-0.798581 -0.80967,0 -1.47516,0.488022 -0.66548,0.476931 -0.97604,1.319877 -0.22183,0.676576 -0.22183,2.528841 v 3.793261 q 0,0.920587 -0.43257,1.386426 -0.42147,0.454748 -1.09804,0.454748 -0.6544,0 -1.07587,-0.476931 -0.42147,-0.47693 -0.42147,-1.364243 v -8.75112 q 0,-0.865129 0.3771,-1.286603 0.37711,-0.432565 1.0315,-0.432565 0.3993,0 0.72095,0.188554 0.32165,0.188554 0.5102,0.565662 0.19965,0.377108 0.19965,0.920587 z m 20.71874,6.677026 q 0,1.253329 -0.61002,2.151733 -0.61003,0.887313 -1.8079,1.353152 -1.18678,0.454748 -2.89486,0.454748 -1.63044,0 -2.79503,-0.499114 -1.1646,-0.499113 -1.71917,-1.242237 -0.55457,-0.754216 -0.55457,-1.508432 0,-0.499113 0.35492,-0.854038 0.35493,-0.354925 0.89841,-0.354925 0.47693,0 0.73203,0.23292 0.2551,0.232919 0.48802,0.654393 0.46584,0.809672 1.10914,1.208963 0.65439,0.399291 1.77463,0.399291 0.90949,0 1.48624,-0.399291 0.58785,-0.410382 0.58785,-0.931678 0,-0.798581 -0.61003,-1.164598 -0.59893,-0.366016 -1.98536,-0.698758 -1.56389,-0.3882 -2.55102,-0.809673 -0.97605,-0.432565 -1.56389,-1.131324 -0.58785,-0.698758 -0.58785,-1.719168 0,-0.909495 0.54348,-1.719168 0.54348,-0.809672 1.59717,-1.286603 1.06477,-0.488022 2.56211,-0.488022 1.17569,0 2.10737,0.244011 0.94277,0.244011 1.56389,0.654393 0.63221,0.410382 0.95386,0.909496 0.33274,0.499113 0.33274,0.976043 0,0.521297 -0.35493,0.854039 -0.34383,0.332742 -0.98713,0.332742 -0.46584,0 -0.79858,-0.266194 -0.32165,-0.266194 -0.74313,-0.798581 -0.34383,-0.443656 -0.80967,-0.70985 -0.46584,-0.266194 -1.26442,-0.266194 -0.82076,0 -1.36424,0.354925 -0.54348,0.343834 -0.54348,0.86513 0,0.47693 0.39929,0.78749 0.39929,0.299468 1.07587,0.499113 0.67657,0.199645 1.86335,0.488022 1.40861,0.343833 2.29592,0.820764 0.89841,0.47693 1.35315,1.131323 0.46584,0.643302 0.46584,1.475157 z m 2.72849,-8.085635 h 0.33274 v -1.81899 q 0,-0.732033 0.0333,-1.142415 0.0444,-0.421474 0.22183,-0.720942 0.17746,-0.310559 0.5102,-0.499113 0.33274,-0.199645 0.74312,-0.199645 0.57676,0 1.0426,0.432564 0.31056,0.288377 0.3882,0.70985 0.0887,0.410383 0.0887,1.17569 v 2.063001 h 1.10914 q 0.6433,0 0.97604,0.31056 0.34383,0.299468 0.34383,0.776398 0,0.610027 -0.48802,0.854038 -0.47693,0.244011 -1.37533,0.244011 h -0.56566 v 5.567886 q 0,0.70985 0.0444,1.09805 0.0555,0.377107 0.2662,0.621118 0.22182,0.23292 0.70985,0.23292 0.26619,0 0.72094,-0.08873 0.45475,-0.09982 0.70985,-0.09982 0.36601,0 0.65439,0.299468 0.29947,0.288376 0.29947,0.720941 0,0.732033 -0.79858,1.120232 -0.79858,0.3882 -2.29592,0.3882 -1.4197,0 -2.15174,-0.476931 -0.73203,-0.47693 -0.96495,-1.319877 -0.22183,-0.842947 -0.22183,-2.251556 v -5.811897 h -0.39929 q -0.65439,0 -0.99822,-0.310559 -0.34384,-0.31056 -0.34384,-0.78749 0,-0.47693 0.35493,-0.776398 0.36601,-0.31056 1.05368,-0.31056 z m 15.73871,10.337191 v -0.388199 q -0.54348,0.687667 -1.14241,1.153506 -0.59894,0.465839 -1.30879,0.687667 -0.70985,0.23292 -1.61934,0.23292 -1.09805,0 -1.97427,-0.454748 -0.86513,-0.454748 -1.34207,-1.253329 -0.56566,-0.964952 -0.56566,-2.772851 V 51.91539 q 0,-0.909496 0.41039,-1.353152 0.41038,-0.454748 1.08695,-0.454748 0.68767,0 1.10914,0.454748 0.42148,0.454748 0.42148,1.353152 v 4.846944 q 0,1.053684 0.17746,1.774625 0.17746,0.70985 0.63221,1.120232 0.46584,0.399291 1.25333,0.399291 0.76531,0 1.44188,-0.454748 0.67658,-0.454747 0.98714,-1.18678 0.2551,-0.643302 0.2551,-2.817217 V 51.91539 q 0,-0.898404 0.42147,-1.353152 0.42148,-0.454748 1.09805,-0.454748 0.67658,0 1.08696,0.454748 0.41038,0.443656 0.41038,1.353152 v 8.773302 q 0,0.86513 -0.39929,1.297695 -0.3882,0.432565 -1.00932,0.432565 -0.62112,0 -1.0315,-0.443657 -0.39929,-0.454747 -0.39929,-1.26442 z m 15.92726,-4.225826 v 4.026181 q 0,0.953861 -0.43256,1.430791 -0.43257,0.476931 -1.14242,0.476931 -0.68767,0 -1.12023,-0.476931 -0.42147,-0.47693 -0.42147,-1.430791 v -4.824762 q 0,-1.142415 -0.0776,-1.774625 -0.0776,-0.63221 -0.42148,-1.031501 -0.34383,-0.410382 -1.08695,-0.410382 -1.48625,0 -1.96318,1.020409 -0.46584,1.02041 -0.46584,2.928132 v 4.092729 q 0,0.942769 -0.43257,1.430791 -0.42147,0.476931 -1.12023,0.476931 -0.68767,0 -1.13132,-0.476931 -0.43257,-0.488022 -0.43257,-1.430791 v -8.662389 q 0,-0.854038 0.3882,-1.297694 0.39929,-0.443657 1.04259,-0.443657 0.62112,0 1.0315,0.421474 0.42148,0.410382 0.42148,1.142415 v 0.288376 q 0.78749,-0.942769 1.68589,-1.386426 0.89841,-0.443656 1.99645,-0.443656 1.14242,0 1.96318,0.454748 0.82077,0.454748 1.35315,1.375334 0.76531,-0.931678 1.64153,-1.375334 0.87622,-0.454748 1.941,-0.454748 1.24224,0 2.14064,0.488022 0.8984,0.488022 1.34206,1.397517 0.3882,0.820764 0.3882,2.584298 v 5.91172 q 0,0.953861 -0.43256,1.430791 -0.43257,0.476931 -1.14242,0.476931 -0.68767,0 -1.13132,-0.476931 -0.43257,-0.488022 -0.43257,-1.430791 v -5.090956 q 0,-0.976044 -0.0887,-1.563888 -0.0776,-0.587845 -0.44366,-0.987135 -0.36601,-0.399291 -1.10914,-0.399291 -0.59893,0 -1.14241,0.354925 -0.53239,0.354925 -0.83186,0.953861 -0.33274,0.765307 -0.33274,2.706303 z m 20.09762,0 v 4.026181 q 0,0.953861 -0.43257,1.430791 -0.43256,0.476931 -1.14241,0.476931 -0.68767,0 -1.12023,-0.476931 -0.42148,-0.47693 -0.42148,-1.430791 v -4.824762 q 0,-1.142415 -0.0776,-1.774625 -0.0776,-0.63221 -0.42147,-1.031501 -0.34383,-0.410382 -1.08696,-0.410382 -1.48625,0 -1.96318,1.020409 -0.46583,1.02041 -0.46583,2.928132 v 4.092729 q 0,0.942769 -0.43257,1.430791 -0.42147,0.476931 -1.12023,0.476931 -0.68767,0 -1.13133,-0.476931 -0.43256,-0.488022 -0.43256,-1.430791 v -8.662389 q 0,-0.854038 0.3882,-1.297694 0.39929,-0.443657 1.04259,-0.443657 0.62112,0 1.0315,0.421474 0.42148,0.410382 0.42148,1.142415 v 0.288376 q 0.78749,-0.942769 1.68589,-1.386426 0.8984,-0.443656 1.99645,-0.443656 1.14242,0 1.96318,0.454748 0.82077,0.454748 1.35315,1.375334 0.76531,-0.931678 1.64153,-1.375334 0.87622,-0.454748 1.941,-0.454748 1.24223,0 2.14064,0.488022 0.8984,0.488022 1.34206,1.397517 0.3882,0.820764 0.3882,2.584298 v 5.91172 q 0,0.953861 -0.43257,1.430791 -0.43256,0.476931 -1.14241,0.476931 -0.68767,0 -1.13132,-0.476931 -0.43257,-0.488022 -0.43257,-1.430791 v -5.090956 q 0,-0.976044 -0.0887,-1.563888 -0.0776,-0.587845 -0.44366,-0.987135 -0.36601,-0.399291 -1.10914,-0.399291 -0.59893,0 -1.14241,0.354925 -0.53239,0.354925 -0.83186,0.953861 -0.33274,0.765307 -0.33274,2.706303 z m 18.4783,0.521296 h -5.92282 q 0.0111,1.031501 0.41039,1.818991 0.41038,0.78749 1.07586,1.18678 0.67658,0.399291 1.48625,0.399291 0.54348,0 0.98714,-0.122005 0.45474,-0.133097 0.87622,-0.399291 0.42147,-0.277285 0.7764,-0.587845 0.35492,-0.310559 0.92058,-0.842947 0.23292,-0.199645 0.66549,-0.199645 0.46584,0 0.75421,0.255103 0.28838,0.255102 0.28838,0.720941 0,0.410382 -0.32165,0.964952 -0.32165,0.543479 -0.97605,1.053684 -0.6433,0.499113 -1.63043,0.831855 -0.97605,0.332743 -2.25156,0.332743 -2.91704,0 -4.53638,-1.663711 -1.61935,-1.663711 -1.61935,-4.514203 0,-1.34206 0.39929,-2.484475 0.39929,-1.153506 1.1646,-1.97427 0.76531,-0.820764 1.88554,-1.253329 1.12023,-0.443656 2.48447,-0.443656 1.77463,0 3.03905,0.754215 1.27551,0.743124 1.90772,1.929905 0.63221,1.18678 0.63221,2.417927 0,1.142414 -0.65439,1.486248 -0.65439,0.332742 -1.84117,0.332742 z m -5.92282,-1.719168 h 5.49025 q -0.11091,-1.552797 -0.84295,-2.318104 -0.72094,-0.776398 -1.90772,-0.776398 -1.13132,0 -1.86335,0.78749 -0.72095,0.776398 -0.87623,2.307012 z m 10.96939,5.290601 V 47.445553 q 0,-0.909495 0.39929,-1.375335 0.41039,-0.465839 1.09805,-0.465839 0.68767,0 1.10914,0.465839 0.42148,0.454748 0.42148,1.375335 v 13.132225 q 0,0.920587 -0.43257,1.386426 -0.42147,0.454748 -1.09805,0.454748 -0.66548,0 -1.08695,-0.476931 -0.41039,-0.47693 -0.41039,-1.364243 z"
         id="text12"
         style="font-size:22.7152px;font-family:'Arial Rounded MT Bold';-inkscape-font-specification:'Arial Rounded MT Bold, ';fill:#16a34a;stroke:url(#pattern16);stroke-width:0.79375;stroke-linejoin:round;paint-order:markers fill stroke"
         aria-label="Kippenstummel" /><g
         id="layer1-11"
         transform="matrix(0.26821175,-0.1222287,0.1222287,0.26821175,-23.213403,28.511209)"
         style="stroke:url(#pattern6)"><rect
           style="fill:#16a34a;fill-opacity:1;stroke:#334155;stroke-width:5.43697;stroke-linejoin:round;stroke-dasharray:none;stroke-opacity:1;paint-order:markers fill stroke"
           id="rect1-8-5-5"
           width="29.897684"
           height="22.491781"
           x="15.213657"
           y="137.25536"
           ry="3.9691384"
           transform="matrix(1.0028046,0,0,0.91970688,10.673023,34.580609)" /><rect
           style="fill:#16a34a;fill-opacity:1;stroke-width:0.793752;stroke-linejoin:round;paint-order:markers fill stroke"
           id="rect3-2"
           width="5.2916665"
           height="26.458334"
           x="152.92917"
           y="131.23334"
           ry="2.6458333"
           transform="matrix(1.0028046,0,0,0.97081946,17.969466,30.988245)" /><rect
           style="fill:#16a34a;fill-opacity:1;stroke-width:0.793752;stroke-linejoin:round;paint-order:markers fill stroke"
           id="rect1-1-7"
           width="5.2916665"
           height="26.458334"
           x="163.5125"
           y="131.23334"
           ry="2.6458333"
           transform="matrix(1.0028046,0,0,0.97081946,17.969466,30.988245)" /><path
           id="rect2-6"
           style="fill:#94a3b8;fill-opacity:1;stroke:none;stroke-width:3.97272;stroke-linejoin:round;stroke-dasharray:none;stroke-opacity:1;paint-order:markers fill stroke"
           d="m 88.735994,-176.09488 c 0,6.79185 5.523779,12.3151 12.315366,12.3151 6.79159,0 12.31483,-5.52325 12.31483,-12.3151 v -12.73095 c 0,-0.0208 0.003,-0.0371 0.003,-0.0577 v -5.17329 h 6.95506 c 1.46579,0 2.64602,-1.17986 2.64602,-2.64565 v -0.084 c 0,-1.4658 -1.18023,-2.64617 -2.64602,-2.64617 h -6.95826 v -2.99503 c 0,-0.42612 -0.004,-0.75002 0.003,-1.0327 v -1.17957 h 6.96306 c 1.4658,0 2.64549,-1.18037 2.64549,-2.64616 v -0.084 c 0,-1.46579 -1.17969,-2.64564 -2.64549,-2.64564 H 109.9644 c -0.7854,0 -1.4865,0.34067 -1.97025,0.88068 -0.25287,0.2415 -0.42355,0.55619 -0.54509,0.94458 -0.0315,0.0972 -0.0587,0.19651 -0.0789,0.29837 -0.27207,1.20906 -0.16108,3.08974 -0.16108,6.03438 v 25.76286 c 0,3.39593 -2.76175,6.15807 -6.15768,6.15807 -3.395925,0 -6.158217,-2.76214 -6.158217,-6.15807 v -18.20622 h -0.0112 v -12.67943 c 0,-1.67555 -1.34915,-3.0244 -3.024705,-3.0244 h -0.09601 c -1.675554,0 -3.024171,1.34885 -3.024171,3.0244 0.04142,-0.53071 0,12.67943 0,12.67943 h -0.0011 z"
           transform="matrix(0,0.96887813,-1.0028046,0,-23.357791,34.104026)" /><rect
           style="fill:#f9f9f9;stroke:#334155;stroke-width:5.43699;stroke-linejoin:round;stroke-dasharray:none;stroke-opacity:1;paint-order:markers fill stroke"
           id="rect1-8-1"
           width="107.15599"
           height="22.491764"
           x="45.111588"
           y="137.25533"
           ry="3.969135"
           transform="matrix(1.0028046,0,0,0.91970688,10.673023,34.580609)" /><rect
           style="fill:#16a34a;fill-opacity:1;stroke:#334155;stroke-width:5.43697;stroke-linejoin:round;stroke-dasharray:none;stroke-opacity:1;paint-order:markers fill stroke"
           id="rect1"
           width="29.897684"
           height="22.491781"
           x="15.213657"
           y="137.25536"
           ry="3.9691384"
           transform="matrix(1.0028046,0,0,0.91970688,10.673023,34.580609)" /></g></g></g></svg>
